<svg id="visual" viewBox="0 0 900 900" width="900" height="900" xmlns="http://www.w3.org/2000/svg" xmlns:xlink="http://www.w3.org/1999/xlink" version="1.1"><g transform="translate(438.860413872378 441.0227066671068)"><path d="M189.7 -280.2C257.9 -251.3 333.6 -219.1 374.2 -161.7C414.8 -104.2 420.2 -21.5 400.8 52C381.5 125.5 337.4 189.8 285.7 245.2C234 300.5 174.8 347 110 358.6C45.3 370.2 -24.9 347 -91.6 322.6C-158.4 298.2 -221.6 272.5 -277.7 228.9C-333.8 185.3 -382.7 123.7 -388.7 58.1C-394.7 -7.5 -357.9 -77.1 -321 -141.8C-284 -206.6 -246.9 -266.5 -193.4 -302C-139.8 -337.6 -69.9 -348.8 -4.6 -341.7C60.7 -334.5 121.5 -309 189.7 -280.2" fill="#212529"></path></g></svg>